<svg width="244" height="131" viewBox="0 0 244 131" fill="none" xmlns="http://www.w3.org/2000/svg">
<g filter="url(#filter0_d_2_588)">
<rect x="20" y="10" width="204" height="91" rx="12" fill="white"/>
</g>
<path d="M131.625 43.1023V45.869C131.633 46.0545 131.713 46.2297 131.848 46.3569C131.983 46.4841 132.163 46.5532 132.349 46.5492H138.775L131.371 57.1452C130.903 57.8263 130.903 58.5919 130.903 59.0175V61.8258C130.903 62.2513 131.37 62.6768 131.796 62.4641C135.966 60.2086 141.03 60.4214 144.817 62.4215C145.285 62.6765 145.711 62.2087 145.711 61.7832V58.847C145.668 58.464 145.541 58.0384 145.073 57.7831C142.945 56.5919 140.434 56.2516 138.051 56.2942L144.434 47.1876C145.03 46.3361 145.37 45.8258 145.37 45.4428V43.1023C145.363 42.9166 145.283 42.7413 145.148 42.614C145.012 42.4866 144.833 42.4175 144.647 42.4214H132.306C132.215 42.4166 132.125 42.4309 132.04 42.4634C131.955 42.4959 131.878 42.5459 131.814 42.6101C131.75 42.6743 131.7 42.7513 131.667 42.8361C131.635 42.9209 131.62 43.0116 131.625 43.1023Z" fill="#C4C4C4"/>
<path d="M82.9009 63.0176H86.6457C86.8295 63.0241 87.0093 62.9627 87.1506 62.8449C87.292 62.7271 87.3849 62.5614 87.4116 62.3794V52.1663C87.4116 52.0996 87.4116 52.0322 87.4115 51.9642C87.409 49.7324 87.4058 46.847 90.0074 46.847C92.3829 46.847 92.3436 49.4343 92.3122 51.5029C92.3087 51.7318 92.3053 51.9543 92.3053 52.1663V62.3794C92.3053 62.7199 92.6032 63.0177 92.9862 63.0603H96.731C96.9167 63.0642 97.0965 62.995 97.2318 62.8677C97.3671 62.7403 97.447 62.565 97.4543 62.3794V52.1663C97.4543 52.0688 97.454 51.9673 97.4537 51.8627C97.4501 50.7799 97.4455 49.3566 97.7947 48.4642C97.9762 48.0104 98.2863 47.6195 98.6871 47.3398C99.0878 47.06 99.5616 46.9035 100.05 46.8896C101.157 46.8896 101.965 47.2726 102.263 48.5492C102.396 49.1503 102.373 50.5376 102.356 51.4977C102.352 51.761 102.348 51.9923 102.348 52.1663V62.3794C102.348 62.7199 102.646 63.0177 103.029 63.0603H106.732C106.917 63.0642 107.097 62.995 107.232 62.8677C107.368 62.7403 107.448 62.565 107.455 62.3794V50.2089C107.455 49.8988 107.461 49.5831 107.466 49.2649C107.499 47.4436 107.533 45.5428 106.519 44.1663C105.455 42.6768 103.753 42.0385 102.178 42.0385C99.9651 42.0385 97.8797 43.1875 96.9863 45.613C95.9649 43.1875 94.4756 42.0385 92.1351 42.0385C89.8372 42.0385 88.0921 43.1875 87.1988 45.613H87.1137V43.1023C87.1 42.9303 87.0226 42.7695 86.8967 42.6515C86.7708 42.5335 86.6054 42.4666 86.4328 42.464H82.9434C82.7577 42.4601 82.5778 42.5293 82.4426 42.6566C82.3073 42.7839 82.2274 42.9593 82.22 43.1449V62.3793C82.2477 62.5456 82.3294 62.6983 82.4525 62.8136C82.5755 62.929 82.7331 63.0006 82.9009 63.0176Z" fill="#C4C4C4"/>
<path fill-rule="evenodd" clip-rule="evenodd" d="M164.605 52.8898C164.605 46.8046 161.583 42.0385 156.009 42.0385C150.562 42.0385 147.54 46.7194 147.583 52.7195C147.583 58.6771 150.562 63.4431 156.009 63.4431C161.286 63.4431 164.605 58.7623 164.605 52.8898ZM153.073 52.1238C153.073 49.7834 153.243 45.996 156.009 45.996C157.2 45.996 158.051 46.5065 158.477 47.8683C158.945 49.4004 159.03 51.3577 159.03 52.9749C159.03 55.443 158.86 59.4857 155.966 59.4857C153.071 59.4857 153.072 54.6028 153.073 52.2229L153.073 52.1238Z" fill="#C4C4C4"/>
<path d="M168.052 63.0176H171.796C171.985 63.0158 172.166 62.9463 172.307 62.8211C172.448 62.6959 172.538 62.524 172.562 62.337V51.9533C172.562 50.6341 172.647 49.4848 173.158 48.2936C173.583 47.3573 174.435 46.7617 175.328 46.7617C177.715 46.7617 177.691 49.3532 177.672 51.4246C177.67 51.6056 177.668 51.7826 177.668 51.9536V62.4216C177.711 62.7194 178.009 62.9746 178.349 63.0172H182.094C182.267 63.0249 182.437 62.9682 182.57 62.8583C182.704 62.7483 182.792 62.5927 182.818 62.4216V50.2937C182.818 48.4213 182.818 45.8255 181.839 44.2936C180.775 42.6337 179.116 42.0382 177.456 42.0382C174.86 42.0382 173.413 43.2722 172.35 45.9106H172.264V42.9744C172.227 42.8206 172.14 42.6834 172.017 42.5836C171.894 42.4838 171.742 42.4267 171.584 42.4211H168.094C167.917 42.4225 167.746 42.4878 167.613 42.6051C167.48 42.7224 167.394 42.8837 167.371 43.0594V62.3367C167.371 62.6772 167.669 62.975 168.052 63.0176Z" fill="#C4C4C4"/>
<path fill-rule="evenodd" clip-rule="evenodd" d="M125.15 63.1614C125.31 63.1461 125.462 63.081 125.583 62.9751L125.584 62.975C125.856 62.7484 126.203 62.4521 126.574 62.1355C127.247 61.5604 127.999 60.9185 128.52 60.5068C128.818 60.2941 128.776 59.8685 128.52 59.5281C128.438 59.4102 128.356 59.2954 128.274 59.1816C127.676 58.3507 127.116 57.5733 127.116 56.0387V50.2088C127.116 50.014 127.117 49.8202 127.118 49.6277C127.131 47.3821 127.142 45.3084 125.457 43.7406C124.01 42.3363 121.627 41.8683 119.797 41.8683C116.222 41.8683 112.265 43.1875 111.414 47.6131C111.329 48.0813 111.669 48.294 111.967 48.3791L115.584 48.7621C115.925 48.7621 116.137 48.4216 116.222 48.0812C116.52 46.5491 117.797 45.8258 119.244 45.8258C120.009 45.8258 120.86 46.1235 121.328 46.8044C121.817 47.4816 121.808 48.3919 121.799 49.2112C121.798 49.3186 121.796 49.4244 121.796 49.5279V49.9959C121.444 50.0375 121.073 50.0767 120.69 50.1172C118.721 50.3258 116.443 50.567 114.733 51.3151C112.391 52.3366 110.732 54.3791 110.732 57.443C110.732 61.3154 113.2 63.2729 116.349 63.2729C118.987 63.2729 120.477 62.6339 122.519 60.5494C122.619 60.6923 122.709 60.8253 122.795 60.9513C123.296 61.6882 123.636 62.188 124.689 63.0602C124.829 63.1412 124.99 63.1766 125.15 63.1614ZM121.796 54.0545C121.796 53.9789 121.796 53.9028 121.796 53.826V53.0181C119.072 53.0181 116.221 53.6139 116.221 56.8054C116.221 58.4226 117.072 59.5289 118.519 59.5289C119.583 59.5289 120.519 58.8906 121.115 57.8267C121.8 56.5769 121.798 55.4041 121.796 54.0545Z" fill="#C4C4C4"/>
<path fill-rule="evenodd" clip-rule="evenodd" d="M75.9571 63.1614C76.1174 63.1461 76.2688 63.081 76.3901 62.9751L76.3916 62.975C76.6635 62.7484 77.0104 62.4521 77.3811 62.1355C78.0546 61.5604 78.8062 60.9185 79.3277 60.5068C79.6255 60.2941 79.5831 59.8685 79.3277 59.5281C79.2457 59.4102 79.1631 59.2954 79.0811 59.1816C78.483 58.3507 77.9235 57.5733 77.9235 56.0387V50.2088C77.9235 50.014 77.9245 49.8202 77.9256 49.6277C77.9379 47.3821 77.9493 45.3084 76.2639 43.7406C74.817 42.3363 72.4341 41.8683 70.6042 41.8683C67.0298 41.8683 63.0722 43.1875 62.2211 47.6131C62.1361 48.0813 62.4766 48.294 62.7744 48.3791L66.3914 48.7621C66.732 48.7621 66.9447 48.4216 67.0298 48.0812C67.3277 46.5491 68.6043 45.8258 70.0511 45.8258C70.8164 45.8258 71.6676 46.1235 72.1356 46.8044C72.6247 47.4816 72.6148 48.3919 72.606 49.2112C72.6048 49.3186 72.6037 49.4244 72.6037 49.5279V49.9959C72.2509 50.0375 71.88 50.0767 71.4976 50.1172C69.5279 50.3258 67.2502 50.567 65.5398 51.3151C63.1986 52.3366 61.5391 54.3791 61.5391 57.443C61.5391 61.3154 64.0072 63.2729 67.1562 63.2729C69.7945 63.2729 71.284 62.6339 73.3265 60.5494C73.426 60.6923 73.5164 60.8253 73.6021 60.9513C74.1031 61.6882 74.4429 62.188 75.4968 63.0602C75.6358 63.1412 75.7969 63.1766 75.9571 63.1614ZM72.6456 54.0546C72.6455 53.979 72.6454 53.9028 72.6454 53.826V53.0181C69.9219 53.0181 67.0708 53.6139 67.0708 56.8054C67.0708 58.4226 67.9218 59.5289 69.3687 59.5289C70.4326 59.5289 71.3689 58.8906 71.9645 57.8267C72.6496 56.5769 72.6477 55.4041 72.6456 54.0546Z" fill="#C4C4C4"/>
<path d="M139.71 67.0602C138.817 65.9113 133.752 66.507 131.497 66.8049C130.816 66.89 130.689 66.2943 131.327 65.8687C135.37 63.0176 141.965 63.8686 142.731 64.8048C143.497 65.741 142.519 72.379 138.731 75.5284C138.135 75.9964 137.582 75.7411 137.837 75.1028L137.882 74.9915C138.753 72.8147 140.588 68.231 139.71 67.0602Z" fill="#C4C4C4"/>
<path d="M136.774 70.4223C129.753 75.6141 119.54 78.3799 110.731 78.3799C98.3902 78.3799 87.3262 73.8266 78.9005 66.2521C78.2622 65.6565 78.8154 64.8478 79.6238 65.3159C88.6879 70.5925 99.8796 73.7416 111.454 73.7416C119.242 73.7416 127.837 72.1246 135.753 68.7627C136.944 68.2946 137.923 69.5712 136.774 70.4223Z" fill="#C4C4C4"/>
<defs>
<filter id="filter0_d_2_588" x="0" y="0" width="244" height="131" filterUnits="userSpaceOnUse" color-interpolation-filters="sRGB">
<feFlood flood-opacity="0" result="BackgroundImageFix"/>
<feColorMatrix in="SourceAlpha" type="matrix" values="0 0 0 0 0 0 0 0 0 0 0 0 0 0 0 0 0 0 127 0" result="hardAlpha"/>
<feOffset dy="10"/>
<feGaussianBlur stdDeviation="10"/>
<feColorMatrix type="matrix" values="0 0 0 0 0 0 0 0 0 0 0 0 0 0 0 0 0 0 0.1 0"/>
<feBlend mode="normal" in2="BackgroundImageFix" result="effect1_dropShadow_2_588"/>
<feBlend mode="normal" in="SourceGraphic" in2="effect1_dropShadow_2_588" result="shape"/>
</filter>
</defs>
</svg>
